{
  "accessors": [
    {
      "bufferView": 2,
      "componentType": 5126,
      "count": 59879,
      "max": [
        4.294525146484375,
        22.656618118286133,
        0.8194400072097778
      ],
      "min": [
        -2.061073064804077,
        18.28536033630371,
        -2.902578115463257
      ],
      "type": "VEC3"
    },
    {
      "bufferView": 2,
      "byteOffset": 718548,
      "componentType": 5126,
      "count": 59879,
      "max": [
        0.9998824596405029,
        0.9999958872795105,
        0.9999977946281433
      ],
      "min": [
        -0.9999744892120361,
        -0.9999768137931824,
        -0.9999950528144836
      ],
      "type": "VEC3"
    },
    {
      "bufferView": 1,
      "componentType": 5126,
      "count": 59879,
      "max": [
        1.0,
        0.999343991279602
      ],
      "min": [
        0.0,
        0.0
      ],
      "type": "VEC2"
    },
    {
      "bufferView": 0,
      "componentType": 5125,
      "count": 343812,
      "type": "SCALAR"
    }
  ],
  "asset": {
    "extras": {
      "author": "JaviSE (https://sketchfab.com/JaviSE)",
      "license": "CC-BY-4.0 (http://creativecommons.org/licenses/by/4.0/)",
      "source": "https://sketchfab.com/3d-models/cabeza-a70e0acfb7384a2f91fa9a066cca9275",
      "title": "Cabeza"
    },
    "generator": "Sketchfab-12.65.0",
    "version": "2.0"
  },
  "bufferViews": [
    {
      "buffer": 0,
      "byteLength": 1375248,
      "name": "floatBufferViews",
      "target": 34963
    },
    {
      "buffer": 0,
      "byteLength": 479032,
      "byteOffset": 1375248,
      "byteStride": 8,
      "name": "floatBufferViews",
      "target": 34962
    },
    {
      "buffer": 0,
      "byteLength": 1437096,
      "byteOffset": 1854280,
      "byteStride": 12,
      "name": "floatBufferViews",
      "target": 34962
    }
  ],
  "buffers": [
    {
      "byteLength": 3291376,
      "uri": "scene.bin"
    }
  ],
  "images": [
    {
      "uri": "textures/SFOPTIMIZED_2_baseColor.jpeg"
    }
  ],
  "materials": [
    {
      "doubleSided": true,
      "name": "SFOPTIMIZED_2",
      "pbrMetallicRoughness": {
        "baseColorTexture": {
          "index": 0
        },
        "metallicFactor": 0.0,
        "roughnessFactor": 0.5
      }
    }
  ],
  "meshes": [
    {
      "name": "Object_0",
      "primitives": [
        {
          "attributes": {
            "NORMAL": 1,
            "POSITION": 0,
            "TEXCOORD_0": 2
          },
          "indices": 3,
          "material": 0,
          "mode": 4
        }
      ]
    }
  ],
  "nodes": [
    {
      "children": [
        1
      ],
      "matrix": [
        -4.440892098500626e-16,
        -1.0,
        -3.828568672208042e-16,
        0.0,
        -2.832769343193999e-16,
        -3.828568672208042e-16,
        1.0,
        0.0,
        -1.0,
        4.440892098500627e-16,
        -2.832769343193998e-16,
        0.0,
        0.07514458894729614,
        0.07514458894730523,
        -40.942047119140625,
        1.0
      ],
      "name": "Sketchfab_model"
    },
    {
      "children": [
        2
      ],
      "name": "Cabeza.obj.cleaner.materialmerger.gles"
    },
    {
      "mesh": 0,
      "name": "Object_2"
    }
  ],
  "samplers": [
    {
      "magFilter": 9729,
      "minFilter": 9987,
      "wrapS": 10497,
      "wrapT": 10497
    }
  ],
  "scene": 0,
  "scenes": [
    {
      "name": "Sketchfab_Scene",
      "nodes": [
        0
      ]
    }
  ],
  "textures": [
    {
      "sampler": 0,
      "source": 0
    }
  ]
}
